<mxfile host="Electron" modified="2024-04-18T17:58:48.437Z" agent="Mozilla/5.0 (Windows NT 10.0; Win64; x64) AppleWebKit/537.36 (KHTML, like Gecko) draw.io/21.7.5 Chrome/114.0.5735.289 Electron/25.8.1 Safari/537.36" etag="LFvJ-g7RHR4BvUw2YxVi" version="21.7.5" type="device">
  <diagram name="PÃ¡gina-1" id="K39M_2Ea01jyhSPzVeu5">
    <mxGraphModel dx="2007" dy="1011" grid="1" gridSize="10" guides="1" tooltips="1" connect="1" arrows="1" fold="1" page="1" pageScale="1" pageWidth="1169" pageHeight="827" math="0" shadow="0">
      <root>
        <mxCell id="0" />
        <mxCell id="1" parent="0" />
        <mxCell id="BUTNF9YZNnQbIh7WqErF-1" value="" style="rounded=1;whiteSpace=wrap;html=1;absoluteArcSize=1;arcSize=14;strokeWidth=2;fillColor=#f5f5f5;fontColor=#333333;strokeColor=#666666;" parent="1" vertex="1">
          <mxGeometry x="84" y="4" width="1000" height="820" as="geometry" />
        </mxCell>
        <mxCell id="BUTNF9YZNnQbIh7WqErF-4" value="" style="rounded=1;whiteSpace=wrap;html=1;absoluteArcSize=1;arcSize=14;strokeWidth=2;fillColor=#f8cecc;strokeColor=#b85450;gradientColor=#FF6666;" parent="1" vertex="1">
          <mxGeometry x="94" y="144" width="970" height="70" as="geometry" />
        </mxCell>
        <mxCell id="BUTNF9YZNnQbIh7WqErF-5" value="" style="rounded=1;whiteSpace=wrap;html=1;absoluteArcSize=1;arcSize=14;strokeWidth=2;fillColor=#f8cecc;strokeColor=#b85450;gradientColor=#FF6666;" parent="1" vertex="1">
          <mxGeometry x="94" y="214" width="970" height="410" as="geometry" />
        </mxCell>
        <mxCell id="BUTNF9YZNnQbIh7WqErF-6" value="" style="rounded=1;whiteSpace=wrap;html=1;absoluteArcSize=1;arcSize=14;strokeWidth=2;fillColor=#f8cecc;strokeColor=#b85450;gradientColor=#FF6666;" parent="1" vertex="1">
          <mxGeometry x="94" y="624" width="971" height="70" as="geometry" />
        </mxCell>
        <mxCell id="BUTNF9YZNnQbIh7WqErF-3" value="" style="rounded=1;whiteSpace=wrap;html=1;absoluteArcSize=1;arcSize=14;strokeWidth=2;fillColor=#f8cecc;strokeColor=#b85450;gradientColor=#FF6666;" parent="1" vertex="1">
          <mxGeometry x="94" y="34" width="970" height="110" as="geometry" />
        </mxCell>
        <mxCell id="BUTNF9YZNnQbIh7WqErF-9" value="" style="rounded=1;whiteSpace=wrap;html=1;absoluteArcSize=1;arcSize=14;strokeWidth=2;fillColor=#dae8fc;strokeColor=#6c8ebf;gradientColor=#99CCFF;" parent="1" vertex="1">
          <mxGeometry x="104" y="44" width="310" height="90" as="geometry" />
        </mxCell>
        <mxCell id="BUTNF9YZNnQbIh7WqErF-10" value="Mostrando" style="rounded=1;whiteSpace=wrap;html=1;absoluteArcSize=1;arcSize=14;strokeWidth=2;fillColor=#d5e8d4;strokeColor=#82b366;gradientColor=#CCFF99;" parent="1" vertex="1">
          <mxGeometry x="114" y="74" width="80" height="40" as="geometry" />
        </mxCell>
        <mxCell id="BUTNF9YZNnQbIh7WqErF-11" value="15" style="rounded=1;whiteSpace=wrap;html=1;absoluteArcSize=1;arcSize=14;strokeWidth=2;fillColor=#d5e8d4;strokeColor=#82b366;gradientColor=#CCFF99;" parent="1" vertex="1">
          <mxGeometry x="204" y="74" width="110" height="40" as="geometry" />
        </mxCell>
        <mxCell id="BUTNF9YZNnQbIh7WqErF-12" value="registros" style="rounded=1;whiteSpace=wrap;html=1;absoluteArcSize=1;arcSize=14;strokeWidth=2;fillColor=#d5e8d4;strokeColor=#82b366;gradientColor=#CCFF99;" parent="1" vertex="1">
          <mxGeometry x="324" y="74" width="80" height="40" as="geometry" />
        </mxCell>
        <mxCell id="BUTNF9YZNnQbIh7WqErF-37" value="" style="group;fillColor=#d5e8d4;strokeColor=#82b366;verticalAlign=middle;rounded=1;arcSize=14;strokeWidth=2;gradientColor=#CCFF99;" parent="1" vertex="1" connectable="0">
          <mxGeometry x="594" y="44" width="460" height="90" as="geometry" />
        </mxCell>
        <mxCell id="BUTNF9YZNnQbIh7WqErF-13" value="" style="rounded=1;whiteSpace=wrap;html=1;absoluteArcSize=1;arcSize=14;strokeWidth=2;fillColor=#dae8fc;strokeColor=#6c8ebf;gradientColor=#99CCFF;" parent="BUTNF9YZNnQbIh7WqErF-37" vertex="1">
          <mxGeometry width="460" height="90" as="geometry" />
        </mxCell>
        <mxCell id="BUTNF9YZNnQbIh7WqErF-15" value="" style="rounded=1;whiteSpace=wrap;html=1;absoluteArcSize=1;arcSize=14;strokeWidth=2;fillColor=#d5e8d4;strokeColor=#82b366;gradientColor=#CCFF99;" parent="BUTNF9YZNnQbIh7WqErF-37" vertex="1">
          <mxGeometry x="10" y="20" width="440" height="60" as="geometry" />
        </mxCell>
        <mxCell id="BUTNF9YZNnQbIh7WqErF-16" value="&amp;lt;&amp;lt;" style="rounded=1;whiteSpace=wrap;html=1;absoluteArcSize=1;arcSize=14;strokeWidth=2;fillColor=#fff2cc;strokeColor=#d6b656;" parent="BUTNF9YZNnQbIh7WqErF-37" vertex="1">
          <mxGeometry x="20" y="40" width="30" height="30" as="geometry" />
        </mxCell>
        <mxCell id="BUTNF9YZNnQbIh7WqErF-17" value="&amp;lt;" style="rounded=1;whiteSpace=wrap;html=1;absoluteArcSize=1;arcSize=14;strokeWidth=2;fillColor=#fff2cc;strokeColor=#d6b656;" parent="BUTNF9YZNnQbIh7WqErF-37" vertex="1">
          <mxGeometry x="60" y="40" width="30" height="30" as="geometry" />
        </mxCell>
        <mxCell id="BUTNF9YZNnQbIh7WqErF-18" value="1" style="rounded=1;whiteSpace=wrap;html=1;absoluteArcSize=1;arcSize=0;strokeWidth=2;fillColor=#fff2cc;strokeColor=#d6b656;" parent="BUTNF9YZNnQbIh7WqErF-37" vertex="1">
          <mxGeometry x="100" y="40" width="30" height="30" as="geometry" />
        </mxCell>
        <mxCell id="BUTNF9YZNnQbIh7WqErF-19" value="2" style="rounded=1;whiteSpace=wrap;html=1;absoluteArcSize=1;arcSize=0;strokeWidth=2;fillColor=#fff2cc;strokeColor=#d6b656;" parent="BUTNF9YZNnQbIh7WqErF-37" vertex="1">
          <mxGeometry x="140" y="40" width="30" height="30" as="geometry" />
        </mxCell>
        <mxCell id="BUTNF9YZNnQbIh7WqErF-20" value="3" style="rounded=1;whiteSpace=wrap;html=1;absoluteArcSize=1;arcSize=0;strokeWidth=2;fillColor=#fff2cc;strokeColor=#d6b656;" parent="BUTNF9YZNnQbIh7WqErF-37" vertex="1">
          <mxGeometry x="180" y="40" width="30" height="30" as="geometry" />
        </mxCell>
        <mxCell id="BUTNF9YZNnQbIh7WqErF-21" value="&amp;gt;" style="rounded=1;whiteSpace=wrap;html=1;absoluteArcSize=1;arcSize=14;strokeWidth=2;fillColor=#fff2cc;strokeColor=#d6b656;" parent="BUTNF9YZNnQbIh7WqErF-37" vertex="1">
          <mxGeometry x="370" y="40" width="30" height="30" as="geometry" />
        </mxCell>
        <mxCell id="BUTNF9YZNnQbIh7WqErF-22" value="&amp;gt;&amp;gt;" style="rounded=1;whiteSpace=wrap;html=1;absoluteArcSize=1;arcSize=14;strokeWidth=2;fillColor=#fff2cc;strokeColor=#d6b656;" parent="BUTNF9YZNnQbIh7WqErF-37" vertex="1">
          <mxGeometry x="410" y="40" width="30" height="30" as="geometry" />
        </mxCell>
        <mxCell id="BUTNF9YZNnQbIh7WqErF-23" value="n" style="rounded=1;whiteSpace=wrap;html=1;absoluteArcSize=1;arcSize=0;strokeWidth=2;fillColor=#fff2cc;strokeColor=#d6b656;" parent="BUTNF9YZNnQbIh7WqErF-37" vertex="1">
          <mxGeometry x="330" y="40" width="30" height="30" as="geometry" />
        </mxCell>
        <mxCell id="BUTNF9YZNnQbIh7WqErF-26" value="&lt;font face=&quot;Courier New&quot; style=&quot;font-size: 10px;&quot;&gt;&amp;lt;div id=&quot;hc-nav-buttons&quot;&amp;gt;&lt;/font&gt;" style="text;html=1;strokeColor=none;fillColor=none;align=center;verticalAlign=middle;whiteSpace=wrap;rounded=0;" parent="BUTNF9YZNnQbIh7WqErF-37" vertex="1">
          <mxGeometry x="6" y="2" width="157" height="10" as="geometry" />
        </mxCell>
        <mxCell id="BUTNF9YZNnQbIh7WqErF-25" value="&lt;font face=&quot;Courier New&quot; style=&quot;font-size: 10px;&quot;&gt;&amp;lt;ul class=&quot;pagination-keys&quot;&amp;gt;&lt;/font&gt;" style="text;html=1;strokeColor=none;fillColor=none;align=center;verticalAlign=middle;whiteSpace=wrap;rounded=0;" parent="BUTNF9YZNnQbIh7WqErF-37" vertex="1">
          <mxGeometry x="18" y="22" width="180" height="10" as="geometry" />
        </mxCell>
        <mxCell id="BUTNF9YZNnQbIh7WqErF-51" value="&lt;font face=&quot;Courier New&quot; style=&quot;font-size: 10px;&quot;&gt;&amp;lt;div id=&quot;hc-records-selector&quot;&amp;gt;&lt;/font&gt;" style="text;html=1;strokeColor=none;fillColor=none;align=center;verticalAlign=middle;whiteSpace=wrap;rounded=0;" parent="1" vertex="1">
          <mxGeometry x="111" y="46" width="184" height="10" as="geometry" />
        </mxCell>
        <mxCell id="BUTNF9YZNnQbIh7WqErF-52" value="&lt;font face=&quot;Courier New&quot; style=&quot;font-size: 10px;&quot;&gt;&lt;b&gt;&amp;lt;div id=&quot;head-controls&quot;&amp;gt;&lt;/b&gt;&lt;/font&gt;" style="text;html=1;strokeColor=none;fillColor=none;align=center;verticalAlign=middle;whiteSpace=wrap;rounded=0;" parent="1" vertex="1">
          <mxGeometry x="428" y="36" width="150" height="10" as="geometry" />
        </mxCell>
        <mxCell id="BUTNF9YZNnQbIh7WqErF-57" value="" style="rounded=1;whiteSpace=wrap;html=1;absoluteArcSize=1;arcSize=14;strokeWidth=2;fillColor=#dae8fc;strokeColor=#6c8ebf;gradientColor=#99CCFF;" parent="1" vertex="1">
          <mxGeometry x="104" y="154" width="310" height="50" as="geometry" />
        </mxCell>
        <mxCell id="BUTNF9YZNnQbIh7WqErF-59" value="&lt;font face=&quot;Courier New&quot; style=&quot;font-size: 10px;&quot;&gt;&amp;lt;div id=&quot;metrics-top-label&quot;&amp;gt;&lt;/font&gt;" style="text;html=1;strokeColor=none;fillColor=none;align=center;verticalAlign=middle;whiteSpace=wrap;rounded=0;" parent="1" vertex="1">
          <mxGeometry x="104" y="156" width="184" height="10" as="geometry" />
        </mxCell>
        <mxCell id="BUTNF9YZNnQbIh7WqErF-60" value="&lt;font face=&quot;Courier New&quot; style=&quot;font-size: 10px;&quot;&gt;&amp;lt;div id=&quot;top-info&quot;&amp;gt;&lt;/font&gt;" style="text;html=1;strokeColor=none;fillColor=none;align=center;verticalAlign=middle;whiteSpace=wrap;rounded=0;fontStyle=1" parent="1" vertex="1">
          <mxGeometry x="440" y="146" width="126" height="10" as="geometry" />
        </mxCell>
        <mxCell id="BUTNF9YZNnQbIh7WqErF-62" value="" style="rounded=1;whiteSpace=wrap;html=1;absoluteArcSize=1;arcSize=14;strokeWidth=2;fillColor=#dae8fc;strokeColor=#6c8ebf;gradientColor=#99CCFF;" parent="1" vertex="1">
          <mxGeometry x="104" y="234" width="950" height="380" as="geometry" />
        </mxCell>
        <mxCell id="BUTNF9YZNnQbIh7WqErF-63" value="&lt;font face=&quot;Courier New&quot; style=&quot;font-size: 10px;&quot;&gt;&amp;lt;div id=&quot;datatable&quot;&amp;gt;&lt;/font&gt;" style="text;html=1;strokeColor=none;fillColor=none;align=center;verticalAlign=middle;whiteSpace=wrap;rounded=0;fontStyle=1" parent="1" vertex="1">
          <mxGeometry x="438" y="216" width="130" height="10" as="geometry" />
        </mxCell>
        <mxCell id="BUTNF9YZNnQbIh7WqErF-64" value="&lt;font face=&quot;Courier New&quot; style=&quot;font-size: 10px;&quot;&gt;&amp;lt;table id=&quot;tdatos&quot;&amp;gt;&lt;/font&gt;" style="text;html=1;strokeColor=none;fillColor=none;align=center;verticalAlign=middle;whiteSpace=wrap;rounded=0;" parent="1" vertex="1">
          <mxGeometry x="438" y="236" width="130" height="10" as="geometry" />
        </mxCell>
        <mxCell id="BUTNF9YZNnQbIh7WqErF-65" value="" style="rounded=1;whiteSpace=wrap;html=1;absoluteArcSize=1;arcSize=14;strokeWidth=2;fillColor=#d5e8d4;strokeColor=#82b366;gradientColor=#CCFF99;" parent="1" vertex="1">
          <mxGeometry x="114" y="254" width="930" height="70" as="geometry" />
        </mxCell>
        <mxCell id="BUTNF9YZNnQbIh7WqErF-66" value="" style="rounded=1;whiteSpace=wrap;html=1;absoluteArcSize=1;arcSize=14;strokeWidth=2;fillColor=#d5e8d4;strokeColor=#82b366;gradientColor=#CCFF99;" parent="1" vertex="1">
          <mxGeometry x="114" y="324" width="930" height="210" as="geometry" />
        </mxCell>
        <mxCell id="BUTNF9YZNnQbIh7WqErF-67" value="" style="rounded=1;whiteSpace=wrap;html=1;absoluteArcSize=1;arcSize=14;strokeWidth=2;fillColor=#d5e8d4;strokeColor=#82b366;gradientColor=#CCFF99;" parent="1" vertex="1">
          <mxGeometry x="114" y="534" width="930" height="70" as="geometry" />
        </mxCell>
        <mxCell id="BUTNF9YZNnQbIh7WqErF-68" value="&lt;font face=&quot;Courier New&quot; style=&quot;font-size: 10px;&quot;&gt;&amp;lt;thead id=&quot;table-head&quot;&amp;gt;&lt;/font&gt;" style="text;html=1;strokeColor=none;fillColor=none;align=center;verticalAlign=middle;whiteSpace=wrap;rounded=0;fontColor=#000000;" parent="1" vertex="1">
          <mxGeometry x="433" y="256" width="150" height="10" as="geometry" />
        </mxCell>
        <mxCell id="BUTNF9YZNnQbIh7WqErF-69" value="&lt;font face=&quot;Courier New&quot;&gt;&amp;lt;th&amp;gt;&amp;lt;/th&amp;gt;&amp;nbsp; &amp;nbsp;&amp;lt;th&amp;gt;/th&amp;gt;&amp;nbsp; &amp;nbsp;&amp;lt;th&amp;gt;/th&amp;gt;&amp;nbsp; &amp;nbsp;&amp;lt;th&amp;gt;/th&amp;gt;&amp;nbsp; &amp;nbsp;&amp;lt;th&amp;gt;/th&amp;gt;&amp;nbsp; &amp;nbsp;&amp;lt;th&amp;gt;/th&amp;gt;&amp;nbsp; &amp;nbsp;&amp;lt;th&amp;gt;/th&amp;gt;&lt;/font&gt;" style="rounded=1;whiteSpace=wrap;html=1;absoluteArcSize=1;arcSize=14;strokeWidth=2;fillColor=#F2F2F2;strokeColor=#9673a6;" parent="1" vertex="1">
          <mxGeometry x="123" y="274" width="910" height="40" as="geometry" />
        </mxCell>
        <mxCell id="BUTNF9YZNnQbIh7WqErF-70" value="&lt;font face=&quot;Courier New&quot; style=&quot;font-size: 10px;&quot;&gt;&amp;lt;tr id=&quot;tr-headers&quot;&amp;gt;&lt;/font&gt;" style="text;html=1;strokeColor=none;fillColor=none;align=center;verticalAlign=middle;whiteSpace=wrap;rounded=0;" parent="1" vertex="1">
          <mxGeometry x="442" y="275" width="129" height="10" as="geometry" />
        </mxCell>
        <mxCell id="BUTNF9YZNnQbIh7WqErF-71" value="&lt;font face=&quot;Courier New&quot; style=&quot;font-size: 10px;&quot;&gt;&amp;lt;tbody id=&quot;table-body&quot;&amp;gt;&lt;/font&gt;" style="text;html=1;strokeColor=none;fillColor=none;align=center;verticalAlign=middle;whiteSpace=wrap;rounded=0;fontColor=#000000;" parent="1" vertex="1">
          <mxGeometry x="433" y="325" width="150" height="10" as="geometry" />
        </mxCell>
        <mxCell id="BUTNF9YZNnQbIh7WqErF-74" value="&lt;font face=&quot;Courier New&quot;&gt;&amp;lt;td&amp;gt;&amp;lt;/td&amp;gt;&amp;nbsp; &amp;nbsp;&amp;lt;td&amp;gt;/td&amp;gt;&amp;nbsp; &amp;nbsp;&amp;lt;td&amp;gt;/td&amp;gt;&amp;nbsp; &amp;nbsp;&amp;lt;td&amp;gt;/td&amp;gt;&amp;nbsp; &amp;nbsp;&amp;lt;td&amp;gt;/td&amp;gt;&amp;nbsp; &amp;nbsp;&amp;lt;td&amp;gt;/td&amp;gt;&amp;nbsp; &amp;nbsp;&amp;lt;td&amp;gt;/td&amp;gt;&lt;/font&gt;" style="rounded=1;whiteSpace=wrap;html=1;absoluteArcSize=1;arcSize=14;strokeWidth=2;fillColor=#F2F2F2;strokeColor=#9673a6;" parent="1" vertex="1">
          <mxGeometry x="124" y="344" width="910" height="40" as="geometry" />
        </mxCell>
        <mxCell id="BUTNF9YZNnQbIh7WqErF-75" value="&lt;font face=&quot;Courier New&quot; style=&quot;font-size: 10px;&quot;&gt;&amp;lt;tr class=&quot;tr-data&quot;&amp;gt;&lt;/font&gt;" style="text;html=1;strokeColor=none;fillColor=none;align=center;verticalAlign=middle;whiteSpace=wrap;rounded=0;" parent="1" vertex="1">
          <mxGeometry x="442" y="345" width="129" height="10" as="geometry" />
        </mxCell>
        <mxCell id="BUTNF9YZNnQbIh7WqErF-76" value="&lt;font face=&quot;Courier New&quot;&gt;&amp;lt;td&amp;gt;&amp;lt;/td&amp;gt;&amp;nbsp; &amp;nbsp;&amp;lt;td&amp;gt;/td&amp;gt;&amp;nbsp; &amp;nbsp;&amp;lt;td&amp;gt;/td&amp;gt;&amp;nbsp; &amp;nbsp;&amp;lt;td&amp;gt;/td&amp;gt;&amp;nbsp; &amp;nbsp;&amp;lt;td&amp;gt;/td&amp;gt;&amp;nbsp; &amp;nbsp;&amp;lt;td&amp;gt;/td&amp;gt;&amp;nbsp; &amp;nbsp;&amp;lt;td&amp;gt;/td&amp;gt;&lt;/font&gt;" style="rounded=1;whiteSpace=wrap;html=1;absoluteArcSize=1;arcSize=14;strokeWidth=2;fillColor=#F2F2F2;strokeColor=#9673a6;" parent="1" vertex="1">
          <mxGeometry x="124.5" y="384" width="910" height="40" as="geometry" />
        </mxCell>
        <mxCell id="BUTNF9YZNnQbIh7WqErF-77" value="&lt;font face=&quot;Courier New&quot;&gt;&amp;lt;td&amp;gt;&amp;lt;/td&amp;gt;&amp;nbsp; &amp;nbsp;&amp;lt;td&amp;gt;/td&amp;gt;&amp;nbsp; &amp;nbsp;&amp;lt;td&amp;gt;/td&amp;gt;&amp;nbsp; &amp;nbsp;&amp;lt;td&amp;gt;/td&amp;gt;&amp;nbsp; &amp;nbsp;&amp;lt;td&amp;gt;/td&amp;gt;&amp;nbsp; &amp;nbsp;&amp;lt;td&amp;gt;/td&amp;gt;&amp;nbsp; &amp;nbsp;&amp;lt;td&amp;gt;/td&amp;gt;&lt;/font&gt;" style="rounded=1;whiteSpace=wrap;html=1;absoluteArcSize=1;arcSize=14;strokeWidth=2;fillColor=#F2F2F2;strokeColor=#9673a6;" parent="1" vertex="1">
          <mxGeometry x="124" y="484" width="910" height="40" as="geometry" />
        </mxCell>
        <mxCell id="BUTNF9YZNnQbIh7WqErF-78" value="&lt;font face=&quot;Courier New&quot;&gt;&amp;lt;th&amp;gt;&amp;lt;/th&amp;gt;&amp;nbsp; &amp;nbsp;&amp;lt;th&amp;gt;/th&amp;gt;&amp;nbsp; &amp;nbsp;&amp;lt;th&amp;gt;/th&amp;gt;&amp;nbsp; &amp;nbsp;&amp;lt;th&amp;gt;/th&amp;gt;&amp;nbsp; &amp;nbsp;&amp;lt;th&amp;gt;/th&amp;gt;&amp;nbsp; &amp;nbsp;&amp;lt;th&amp;gt;/th&amp;gt;&amp;nbsp; &amp;nbsp;&amp;lt;th&amp;gt;/th&amp;gt;&lt;/font&gt;" style="rounded=1;whiteSpace=wrap;html=1;absoluteArcSize=1;arcSize=14;strokeWidth=2;fillColor=#F2F2F2;strokeColor=#9673a6;" parent="1" vertex="1">
          <mxGeometry x="124.5" y="554" width="910" height="40" as="geometry" />
        </mxCell>
        <mxCell id="BUTNF9YZNnQbIh7WqErF-79" value="&lt;font face=&quot;Courier New&quot; style=&quot;font-size: 10px;&quot;&gt;&amp;lt;tfoot id=&quot;table-foot&quot;&amp;gt;&lt;/font&gt;" style="text;html=1;strokeColor=none;fillColor=none;align=center;verticalAlign=middle;whiteSpace=wrap;rounded=0;fontColor=#000000;" parent="1" vertex="1">
          <mxGeometry x="441" y="536" width="150" height="10" as="geometry" />
        </mxCell>
        <mxCell id="BUTNF9YZNnQbIh7WqErF-80" value="&lt;font face=&quot;Courier New&quot; style=&quot;font-size: 10px;&quot;&gt;&amp;lt;tr class=&quot;tr-data&quot;&amp;gt;&lt;/font&gt;" style="text;html=1;strokeColor=none;fillColor=none;align=center;verticalAlign=middle;whiteSpace=wrap;rounded=0;" parent="1" vertex="1">
          <mxGeometry x="444.5" y="385" width="129" height="10" as="geometry" />
        </mxCell>
        <mxCell id="BUTNF9YZNnQbIh7WqErF-81" value="&lt;font face=&quot;Courier New&quot; style=&quot;font-size: 10px;&quot;&gt;&amp;lt;tr class=&quot;tr-data&quot;&amp;gt;&lt;/font&gt;" style="text;html=1;strokeColor=none;fillColor=none;align=center;verticalAlign=middle;whiteSpace=wrap;rounded=0;" parent="1" vertex="1">
          <mxGeometry x="443.5" y="485" width="129" height="10" as="geometry" />
        </mxCell>
        <mxCell id="BUTNF9YZNnQbIh7WqErF-83" value="" style="endArrow=none;dashed=1;html=1;dashPattern=1 3;strokeWidth=2;rounded=0;fontFamily=Courier New;fontSize=10;strokeColor=#A1A1A1;" parent="1" edge="1">
          <mxGeometry width="50" height="50" relative="1" as="geometry">
            <mxPoint x="508" y="437" as="sourcePoint" />
            <mxPoint x="508" y="477" as="targetPoint" />
          </mxGeometry>
        </mxCell>
        <mxCell id="BUTNF9YZNnQbIh7WqErF-84" value="" style="rounded=1;whiteSpace=wrap;html=1;absoluteArcSize=1;arcSize=14;strokeWidth=2;fillColor=#dae8fc;strokeColor=#6c8ebf;gradientColor=#99CCFF;" parent="1" vertex="1">
          <mxGeometry x="104" y="634" width="310" height="50" as="geometry" />
        </mxCell>
        <mxCell id="BUTNF9YZNnQbIh7WqErF-85" value="&lt;font face=&quot;Courier New&quot; style=&quot;font-size: 10px;&quot;&gt;&amp;lt;div id=&quot;bottom-info&quot;&amp;gt;&lt;/font&gt;" style="text;html=1;strokeColor=none;fillColor=none;align=center;verticalAlign=middle;whiteSpace=wrap;rounded=0;fontStyle=1" parent="1" vertex="1">
          <mxGeometry x="446.5" y="626" width="141" height="10" as="geometry" />
        </mxCell>
        <mxCell id="BUTNF9YZNnQbIh7WqErF-86" value="&lt;font face=&quot;Courier New&quot; style=&quot;font-size: 10px;&quot;&gt;&amp;lt;div id=&quot;metrics-bottom-label&quot;&amp;gt;&lt;/font&gt;" style="text;html=1;strokeColor=none;fillColor=none;align=center;verticalAlign=middle;whiteSpace=wrap;rounded=0;" parent="1" vertex="1">
          <mxGeometry x="110" y="636" width="190" height="10" as="geometry" />
        </mxCell>
        <mxCell id="BUTNF9YZNnQbIh7WqErF-87" value="" style="rounded=1;whiteSpace=wrap;html=1;absoluteArcSize=1;arcSize=14;strokeWidth=2;fillColor=#f8cecc;strokeColor=#b85450;gradientColor=#FF6666;" parent="1" vertex="1">
          <mxGeometry x="95" y="694" width="970" height="110" as="geometry" />
        </mxCell>
        <mxCell id="BUTNF9YZNnQbIh7WqErF-88" value="" style="rounded=1;whiteSpace=wrap;html=1;absoluteArcSize=1;arcSize=14;strokeWidth=2;fillColor=#dae8fc;strokeColor=#6c8ebf;gradientColor=#99CCFF;" parent="1" vertex="1">
          <mxGeometry x="105" y="704" width="310" height="90" as="geometry" />
        </mxCell>
        <mxCell id="BUTNF9YZNnQbIh7WqErF-89" value="Mostrando" style="rounded=1;whiteSpace=wrap;html=1;absoluteArcSize=1;arcSize=14;strokeWidth=2;fillColor=#d5e8d4;strokeColor=#82b366;gradientColor=#CCFF99;" parent="1" vertex="1">
          <mxGeometry x="115" y="734" width="80" height="40" as="geometry" />
        </mxCell>
        <mxCell id="BUTNF9YZNnQbIh7WqErF-90" value="15" style="rounded=1;whiteSpace=wrap;html=1;absoluteArcSize=1;arcSize=14;strokeWidth=2;fillColor=#d5e8d4;strokeColor=#82b366;gradientColor=#CCFF99;" parent="1" vertex="1">
          <mxGeometry x="205" y="734" width="110" height="40" as="geometry" />
        </mxCell>
        <mxCell id="BUTNF9YZNnQbIh7WqErF-91" value="registros" style="rounded=1;whiteSpace=wrap;html=1;absoluteArcSize=1;arcSize=14;strokeWidth=2;fillColor=#d5e8d4;strokeColor=#82b366;gradientColor=#CCFF99;" parent="1" vertex="1">
          <mxGeometry x="325" y="734" width="80" height="40" as="geometry" />
        </mxCell>
        <mxCell id="BUTNF9YZNnQbIh7WqErF-92" value="" style="group;fillColor=#dae8fc;strokeColor=#6c8ebf;verticalAlign=middle;rounded=1;arcSize=14;strokeWidth=2;gradientColor=#99CCFF;container=0;" parent="1" vertex="1" connectable="0">
          <mxGeometry x="595" y="704" width="460" height="90" as="geometry" />
        </mxCell>
        <mxCell id="BUTNF9YZNnQbIh7WqErF-105" value="&lt;font face=&quot;Courier New&quot; style=&quot;font-size: 10px;&quot;&gt;&lt;b&gt;&amp;lt;div id=&quot;foot-controls&quot;&amp;gt;&lt;/b&gt;&lt;/font&gt;" style="text;html=1;strokeColor=none;fillColor=none;align=center;verticalAlign=middle;whiteSpace=wrap;rounded=0;" parent="1" vertex="1">
          <mxGeometry x="439" y="696" width="150" height="10" as="geometry" />
        </mxCell>
        <mxCell id="BUTNF9YZNnQbIh7WqErF-106" value="&lt;font face=&quot;Courier New&quot; style=&quot;font-size: 10px;&quot;&gt;&amp;lt;div id=&quot;fc-records-selector&quot;&amp;gt;&lt;/font&gt;" style="text;html=1;strokeColor=none;fillColor=none;align=center;verticalAlign=middle;whiteSpace=wrap;rounded=0;" parent="1" vertex="1">
          <mxGeometry x="111" y="706" width="184" height="10" as="geometry" />
        </mxCell>
        <mxCell id="BUTNF9YZNnQbIh7WqErF-107" value="&lt;font face=&quot;Courier New&quot; style=&quot;font-size: 10px;&quot;&gt;&lt;b&gt;&amp;lt;div id=&quot;place-for-list&quot;&amp;gt;&lt;/b&gt;&lt;/font&gt;" style="text;html=1;strokeColor=none;fillColor=none;align=center;verticalAlign=middle;whiteSpace=wrap;rounded=0;" parent="1" vertex="1">
          <mxGeometry x="424" y="6" width="155" height="10" as="geometry" />
        </mxCell>
        <mxCell id="BUTNF9YZNnQbIh7WqErF-93" value="" style="rounded=1;whiteSpace=wrap;html=1;absoluteArcSize=1;arcSize=14;strokeWidth=2;fillColor=#dae8fc;strokeColor=#6c8ebf;gradientColor=#99CCFF;" parent="1" vertex="1">
          <mxGeometry x="595" y="704" width="460" height="90" as="geometry" />
        </mxCell>
        <mxCell id="BUTNF9YZNnQbIh7WqErF-94" value="" style="rounded=1;whiteSpace=wrap;html=1;absoluteArcSize=1;arcSize=14;strokeWidth=2;fillColor=#d5e8d4;strokeColor=#82b366;gradientColor=#CCFF99;" parent="1" vertex="1">
          <mxGeometry x="605" y="724" width="440" height="60" as="geometry" />
        </mxCell>
        <mxCell id="BUTNF9YZNnQbIh7WqErF-95" value="&amp;lt;&amp;lt;" style="rounded=1;whiteSpace=wrap;html=1;absoluteArcSize=1;arcSize=14;strokeWidth=2;fillColor=#fff2cc;strokeColor=#d6b656;" parent="1" vertex="1">
          <mxGeometry x="615" y="744" width="30" height="30" as="geometry" />
        </mxCell>
        <mxCell id="BUTNF9YZNnQbIh7WqErF-96" value="&amp;lt;" style="rounded=1;whiteSpace=wrap;html=1;absoluteArcSize=1;arcSize=14;strokeWidth=2;fillColor=#fff2cc;strokeColor=#d6b656;" parent="1" vertex="1">
          <mxGeometry x="655" y="744" width="30" height="30" as="geometry" />
        </mxCell>
        <mxCell id="BUTNF9YZNnQbIh7WqErF-97" value="1" style="rounded=1;whiteSpace=wrap;html=1;absoluteArcSize=1;arcSize=0;strokeWidth=2;fillColor=#fff2cc;strokeColor=#d6b656;" parent="1" vertex="1">
          <mxGeometry x="695" y="744" width="30" height="30" as="geometry" />
        </mxCell>
        <mxCell id="BUTNF9YZNnQbIh7WqErF-98" value="2" style="rounded=1;whiteSpace=wrap;html=1;absoluteArcSize=1;arcSize=0;strokeWidth=2;fillColor=#fff2cc;strokeColor=#d6b656;" parent="1" vertex="1">
          <mxGeometry x="735" y="744" width="30" height="30" as="geometry" />
        </mxCell>
        <mxCell id="BUTNF9YZNnQbIh7WqErF-99" value="3" style="rounded=1;whiteSpace=wrap;html=1;absoluteArcSize=1;arcSize=0;strokeWidth=2;fillColor=#fff2cc;strokeColor=#d6b656;" parent="1" vertex="1">
          <mxGeometry x="775" y="744" width="30" height="30" as="geometry" />
        </mxCell>
        <mxCell id="BUTNF9YZNnQbIh7WqErF-100" value="&amp;gt;" style="rounded=1;whiteSpace=wrap;html=1;absoluteArcSize=1;arcSize=14;strokeWidth=2;fillColor=#fff2cc;strokeColor=#d6b656;" parent="1" vertex="1">
          <mxGeometry x="965" y="744" width="30" height="30" as="geometry" />
        </mxCell>
        <mxCell id="BUTNF9YZNnQbIh7WqErF-101" value="&amp;gt;&amp;gt;" style="rounded=1;whiteSpace=wrap;html=1;absoluteArcSize=1;arcSize=14;strokeWidth=2;fillColor=#fff2cc;strokeColor=#d6b656;" parent="1" vertex="1">
          <mxGeometry x="1005" y="744" width="30" height="30" as="geometry" />
        </mxCell>
        <mxCell id="BUTNF9YZNnQbIh7WqErF-102" value="n" style="rounded=1;whiteSpace=wrap;html=1;absoluteArcSize=1;arcSize=0;strokeWidth=2;fillColor=#fff2cc;strokeColor=#d6b656;" parent="1" vertex="1">
          <mxGeometry x="925" y="744" width="30" height="30" as="geometry" />
        </mxCell>
        <mxCell id="BUTNF9YZNnQbIh7WqErF-103" value="&lt;font face=&quot;Courier New&quot; style=&quot;font-size: 10px;&quot;&gt;&amp;lt;div id=&quot;fc-nav-buttons&quot;&amp;gt;&lt;/font&gt;" style="text;html=1;strokeColor=none;fillColor=none;align=center;verticalAlign=middle;whiteSpace=wrap;rounded=0;" parent="1" vertex="1">
          <mxGeometry x="601" y="706" width="157" height="10" as="geometry" />
        </mxCell>
        <mxCell id="BUTNF9YZNnQbIh7WqErF-104" value="&lt;font face=&quot;Courier New&quot; style=&quot;font-size: 10px;&quot;&gt;&amp;lt;ul class=&quot;pagination-keys&quot;&amp;gt;&lt;/font&gt;" style="text;html=1;strokeColor=none;fillColor=none;align=center;verticalAlign=middle;whiteSpace=wrap;rounded=0;" parent="1" vertex="1">
          <mxGeometry x="613" y="726" width="180" height="10" as="geometry" />
        </mxCell>
      </root>
    </mxGraphModel>
  </diagram>
</mxfile>
